<?xml version="1.0" standalone="no"?>
<!DOCTYPE svg PUBLIC "-//W3C//DTD SVG 20010904//EN"
 "http://www.w3.org/TR/2001/REC-SVG-20010904/DTD/svg10.dtd">
<svg version="1.0" xmlns="http://www.w3.org/2000/svg"
 width="512.000000pt" height="512.000000pt" viewBox="0 0 512.000000 512.000000"
 preserveAspectRatio="xMidYMid meet">

<g transform="translate(0.000000,512.000000) scale(0.100000,-0.100000)"
fill="#000000" stroke="none">
<path d="M1475 4975 c-272 -60 -479 -250 -565 -520 -16 -50 -24 -107 -29 -200
l-6 -130 -200 -5 c-210 -5 -220 -7 -267 -57 -42 -44 -48 -74 -48 -226 0 -169
13 -209 81 -254 l42 -28 199 -3 198 -3 0 -349 0 -348 -192 -4 c-190 -3 -194
-3 -240 -30 -32 -20 -52 -41 -68 -72 -20 -42 -21 -58 -18 -199 3 -144 4 -156
28 -190 13 -20 43 -46 65 -59 37 -21 53 -23 233 -26 l192 -4 0 -348 0 -349
-198 -3 -199 -3 -42 -28 c-68 -45 -81 -85 -81 -254 0 -152 6 -182 48 -226 47
-50 57 -52 267 -57 l200 -5 6 -130 c5 -93 13 -150 29 -200 79 -247 254 -422
505 -507 l70 -23 1295 -3 c892 -2 1315 1 1358 8 243 42 467 221 563 450 62
148 59 50 59 1970 0 1557 -2 1759 -16 1828 -60 293 -291 526 -582 587 -96 21
-2595 20 -2687 0z m1078 -926 c52 -14 112 -71 131 -122 38 -104 156 -519 156
-549 0 -42 -30 -106 -63 -137 -14 -12 -80 -43 -147 -67 -157 -56 -180 -76
-195 -175 -18 -120 63 -398 200 -685 127 -266 260 -423 361 -424 11 0 80 29
154 65 89 43 146 65 169 65 44 0 109 -29 137 -61 37 -41 291 -496 298 -534 11
-55 -10 -112 -60 -165 -54 -58 -172 -141 -251 -177 -434 -199 -1163 553 -1448
1492 -45 148 -90 375 -104 519 -35 352 27 651 165 805 74 83 150 117 323 146
98 17 127 17 174 4z"/>
</g>
</svg>
