<?xml version="1.0" standalone="no"?>
<!DOCTYPE svg PUBLIC "-//W3C//DTD SVG 20010904//EN"
 "http://www.w3.org/TR/2001/REC-SVG-20010904/DTD/svg10.dtd">
<svg version="1.0" xmlns="http://www.w3.org/2000/svg"
 width="512.000000pt" height="512.000000pt" viewBox="0 0 512.000000 512.000000"
 preserveAspectRatio="xMidYMid meet">

<g transform="translate(0.000000,512.000000) scale(0.100000,-0.100000)"
fill="#000000" stroke="none">
<path d="M920 4807 c-17 -9 -34 -34 -53 -83 l-28 -70 -90 -36 -91 -35 -68 29
c-64 26 -72 27 -102 14 -43 -18 -215 -194 -223 -228 -5 -18 2 -47 23 -93 l29
-67 -33 -76 c-19 -42 -34 -82 -34 -89 0 -6 -32 -24 -71 -39 -39 -15 -77 -37
-85 -48 -21 -30 -20 -313 1 -343 8 -11 44 -31 81 -44 36 -13 69 -30 72 -39 2
-8 19 -49 37 -90 l32 -76 -28 -64 c-16 -36 -28 -74 -29 -84 0 -11 46 -66 112
-133 128 -129 134 -131 234 -87 l58 25 65 -29 c36 -17 76 -33 88 -37 15 -4 29
-26 48 -76 37 -97 48 -101 230 -97 168 4 172 5 207 104 22 62 24 64 73 80 27
9 67 25 89 36 l38 20 58 -26 c99 -45 109 -41 232 82 123 123 126 131 82 226
l-26 57 33 82 c18 45 38 87 43 94 6 6 36 21 66 33 93 36 90 30 90 216 0 162 0
163 -25 182 -14 11 -48 28 -76 38 -27 10 -53 23 -57 29 -4 5 -23 47 -41 92
l-32 83 25 56 c43 94 41 102 -80 225 -59 59 -117 110 -130 113 -16 4 -48 -4
-93 -23 l-68 -30 -89 38 -89 39 -23 58 c-39 99 -49 104 -215 104 -94 0 -150
-5 -167 -13z m259 -217 l27 -65 84 -31 c47 -16 108 -42 137 -57 63 -33 73 -33
143 -2 l55 24 48 -47 c26 -25 47 -52 47 -60 0 -7 -9 -30 -20 -52 -27 -53 -25
-87 9 -151 16 -30 38 -82 49 -116 30 -91 36 -98 102 -123 l60 -22 0 -73 0 -73
-60 -22 c-67 -25 -71 -31 -106 -133 -13 -38 -35 -89 -49 -113 -30 -51 -32 -92
-5 -144 11 -22 20 -45 20 -52 0 -7 -21 -34 -46 -59 l-47 -48 -55 25 c-69 30
-81 30 -145 -3 -29 -14 -88 -39 -131 -54 -44 -16 -83 -32 -88 -37 -4 -4 -19
-34 -32 -67 l-24 -60 -70 -3 -69 -3 -23 60 c-12 33 -29 66 -38 74 -10 7 -53
26 -97 42 -44 15 -98 38 -121 51 -52 30 -76 30 -143 -2 l-55 -25 -50 50 -49
50 26 59 c15 33 27 65 27 73 0 7 -15 42 -34 78 -18 36 -42 93 -52 126 -23 77
-34 90 -105 117 l-59 23 0 72 0 71 48 16 c73 25 88 40 113 113 12 38 37 98 55
135 19 37 34 73 34 79 0 6 -12 38 -27 71 l-26 59 49 50 50 50 57 -26 c32 -14
66 -25 76 -25 10 0 48 16 85 35 37 19 93 42 124 51 73 21 85 32 112 105 l23
60 69 -3 69 -3 28 -65z"/>
<path d="M956 4314 c-223 -54 -386 -264 -386 -499 0 -387 410 -633 754 -453
188 99 301 323 267 529 -49 301 -341 494 -635 423z m275 -177 c74 -36 136 -99
173 -177 62 -131 33 -290 -72 -393 -26 -25 -74 -59 -107 -74 -51 -24 -72 -28
-145 -28 -70 1 -94 5 -140 27 -77 36 -131 86 -171 160 -32 60 -34 68 -34 163
0 90 3 105 27 152 74 139 188 206 339 200 58 -3 90 -10 130 -30z"/>
<path d="M3277 4718 c-9 -7 -36 -62 -60 -123 l-43 -110 -87 -31 c-49 -18 -118
-46 -153 -64 l-66 -32 -104 46 c-58 25 -117 46 -132 46 -21 0 -59 -33 -184
-158 -138 -138 -158 -162 -158 -190 0 -17 20 -77 45 -133 l45 -100 -34 -67
c-19 -37 -46 -103 -61 -147 -16 -44 -33 -85 -39 -91 -6 -6 -45 -23 -86 -39
-116 -43 -136 -54 -149 -81 -7 -16 -11 -99 -11 -233 0 -253 -5 -242 138 -297
53 -20 102 -42 108 -48 6 -6 23 -47 39 -91 15 -44 42 -110 61 -147 l33 -66
-44 -99 c-69 -151 -72 -140 108 -319 95 -96 162 -155 180 -160 21 -5 54 5 137
41 l109 48 83 -40 c46 -22 115 -51 153 -63 l71 -23 38 -101 c59 -156 38 -146
306 -146 165 0 231 3 243 13 10 6 37 62 60 122 l44 110 84 30 c46 17 116 46
156 64 l71 33 103 -46 c56 -25 114 -46 128 -46 18 0 62 37 177 151 84 84 158
164 164 180 10 24 6 40 -38 141 l-49 113 38 77 c21 43 50 109 63 149 13 39 28
74 32 78 5 5 55 25 112 46 59 23 110 48 118 59 21 30 21 453 0 482 -8 10 -65
39 -126 64 l-112 45 -25 75 c-13 41 -42 109 -63 151 l-38 77 49 110 c34 77 48
119 44 135 -4 13 -77 95 -164 181 -121 119 -163 156 -183 156 -14 0 -72 -21
-129 -46 l-103 -45 -78 36 c-42 20 -112 49 -154 63 l-76 27 -44 110 c-24 60
-51 115 -60 122 -25 18 -463 18 -487 1z m423 -246 c20 -51 45 -101 55 -111 11
-10 60 -30 108 -45 49 -15 132 -49 185 -77 53 -27 107 -49 120 -49 13 0 66 19
119 42 l94 41 100 -99 100 -100 -46 -99 c-24 -55 -45 -106 -45 -113 0 -8 20
-51 44 -95 25 -45 61 -131 81 -192 21 -60 44 -118 52 -127 9 -10 60 -34 114
-55 l99 -38 0 -140 0 -140 -99 -38 c-54 -21 -106 -45 -114 -55 -9 -9 -29 -60
-46 -113 -17 -52 -53 -139 -81 -193 -27 -53 -50 -103 -50 -109 0 -7 21 -57 45
-112 l46 -99 -100 -100 -100 -99 -94 41 c-53 23 -106 42 -119 42 -13 0 -67
-22 -120 -49 -53 -28 -136 -62 -185 -77 -48 -15 -97 -35 -108 -46 -11 -10 -36
-60 -56 -111 l-35 -92 -143 0 -142 0 -42 105 -42 105 -110 37 c-60 20 -150 57
-200 83 -49 25 -100 45 -112 45 -12 0 -65 -19 -118 -42 l-97 -41 -98 99 -98
99 44 99 c24 54 44 106 44 116 0 9 -22 59 -49 111 -27 52 -61 132 -76 179 -41
133 -37 128 -155 175 l-105 41 -3 139 -2 140 100 38 c55 21 108 47 118 57 10
11 26 51 36 90 10 39 45 125 77 190 33 66 59 126 59 134 0 7 -20 58 -44 112
l-44 99 98 99 99 100 96 -42 c53 -23 107 -42 120 -42 13 0 59 19 102 42 43 24
132 61 198 83 l120 40 32 80 c18 44 37 92 42 108 l10 28 143 -3 142 -3 36 -93z"/>
<path d="M3375 4026 c-260 -52 -469 -209 -584 -438 -73 -146 -86 -204 -86
-373 0 -159 14 -224 71 -344 248 -527 933 -642 1335 -225 157 164 229 342 229
569 0 271 -115 500 -334 665 -66 50 -204 115 -287 135 -92 22 -259 28 -344 11z
m359 -184 c193 -66 338 -210 414 -410 23 -60 26 -81 27 -207 0 -118 -4 -151
-22 -210 -67 -210 -248 -383 -463 -441 -80 -21 -243 -24 -320 -5 -136 34 -282
125 -361 228 -62 79 -82 115 -115 203 -25 68 -28 88 -28 210 -1 116 2 145 22
205 61 183 181 318 356 401 150 71 331 81 490 26z"/>
<path d="M630 2259 c-19 -6 -89 -24 -154 -41 -100 -26 -126 -37 -159 -67 -48
-43 -67 -85 -67 -147 0 -27 73 -327 180 -742 198 -765 190 -744 280 -789 60
-31 92 -29 265 15 176 46 206 59 245 113 41 57 47 112 22 212 -12 45 -18 85
-14 88 4 4 37 14 74 24 l66 17 505 -290 c338 -196 528 -299 578 -316 94 -31
204 -42 289 -26 36 6 358 98 715 205 358 107 751 224 875 260 124 37 244 78
267 91 106 61 177 225 153 352 -20 109 -81 185 -189 236 -58 27 -78 31 -175
34 -60 3 -142 -1 -182 -8 -40 -6 -302 -74 -582 -150 -279 -76 -530 -141 -556
-145 l-48 -8 31 44 c66 90 77 206 28 312 -37 82 -78 121 -190 180 -162 86
-258 145 -486 302 -228 155 -255 172 -341 201 -80 27 -254 25 -375 -5 -97 -23
-723 -191 -741 -198 -7 -3 -18 24 -29 66 -9 39 -30 88 -45 110 -51 69 -143 96
-240 70z m108 -161 c5 -7 90 -323 188 -701 158 -611 176 -690 162 -703 -19
-19 -276 -86 -305 -79 -15 4 -25 17 -32 43 -243 938 -341 1325 -341 1345 0 14
4 29 10 32 15 9 262 73 286 74 12 1 26 -5 32 -11z m1315 -51 c31 -14 147 -88
259 -165 223 -154 338 -226 477 -298 132 -68 173 -123 156 -210 -8 -46 -58
-101 -103 -113 -70 -20 -127 5 -460 203 -96 57 -173 96 -189 96 -61 0 -100
-93 -55 -132 27 -24 331 -203 455 -268 226 -119 361 -154 500 -132 39 6 304
75 587 153 489 133 521 141 631 146 93 5 126 2 167 -11 122 -41 156 -181 68
-281 -31 -36 -38 -39 -916 -302 -884 -265 -885 -266 -980 -266 -72 0 -109 5
-153 21 -31 11 -180 91 -330 178 -149 87 -371 215 -492 285 -313 181 -274 167
-391 135 -53 -15 -100 -23 -104 -19 -4 4 -51 179 -104 387 -54 208 -100 384
-102 391 -3 7 5 15 18 17 13 3 186 49 385 102 199 54 384 101 410 106 85 16
205 5 266 -23z"/>
<path d="M567 1948 c-9 -7 -21 -25 -26 -40 -30 -79 74 -143 134 -83 51 50 17
135 -54 135 -20 0 -45 -6 -54 -12z"/>
</g>
</svg>
